<?xml version="1.0"?>
<svg xmlns="http://www.w3.org/2000/svg" height="512px" viewBox="-123 -21 682 682.66696" width="512px" class=""><g><path d="m98.875 37.5c18.890625 0 37.386719 7.652344 50.753906 21.019531l1.484375 1.480469c-20.3125 17.203125-33.492187 42.566406-33.492187 71.25 0 15.746094 3.75 30.746094 10.875 44.246094 30.277344-22.511719 53.972656-33.773438 82.875-48.75 27.683594 14.355468 50.71875 24.839844 82.875 48.75 7.125-13.5 10.875-28.5 10.875-44.246094 0-28.683594-13.175782-54.046875-33.488282-71.25l1.480469-1.480469c13.371094-13.367187 31.859375-21.019531 50.757813-21.019531 24.824218 0 24.796875-37.5 0-37.5-28.765625 0-56.929688 11.664062-77.269532 32.007812l-9.519531 9.515626c-8.222656-2.359376-16.730469-4.023438-25.710937-4.023438-8.976563 0-17.484375 1.664062-25.707032 4.023438l-9.523437-9.515626c-20.339844-20.34375-48.5-32.007812-77.265625-32.007812-24.824219 0-24.800781 37.5 0 37.5zm0 0" data-original="#000000" class="active-path" data-old_color="#F9F0F0" fill="#F9F6F6"/><path d="m240.820312 466.574219c-11.453124-19.554688-21.203124-41.828125-29.445312-65.535157-8.246094 23.707032-17.996094 45.976563-29.449219 65.53125-3.457031 6-8.007812 13.285157-13.578125 20.921876h86.050782c-5.570313-7.628907-10.121094-14.914063-13.578126-20.917969zm0 0" data-original="#000000" class="active-path" data-old_color="#F9F0F0" fill="#F9F6F6"/><path d="m112.371094 535.117188c20.253906 34.125 48.378906 56.625 80.25 63v23.273437c0 24.828125 37.5 24.796875 37.5 0v-23.273437c31.875-6.375 60-28.875 80.246094-63 2.253906-3 4.128906-6.753907 6.003906-10.128907h-209.996094c1.871094 3.378907 3.746094 7.128907 5.996094 10.128907zm0 0" data-original="#000000" class="active-path" data-old_color="#F9F0F0" fill="#F9F6F6"/><path d="m423.246094 398.617188c-39.753906-99.746094-114.753906-181.5-210.746094-229.496094l-1.128906-.371094c0 6.371094 0 13.121094.375 20.242188 2.894531 79.648437 21.300781 190.175781 61.5 258.75 11.738281 20.414062 31.355468 46.203124 53.621094 53.625 25.878906 10.125 54 3.371093 74.25-13.875 16.875-13.875 28.125-34.871094 28.125-58.5.003906-9.75-1.871094-19.871094-5.996094-30.375zm0 0" data-original="#000000" class="active-path" data-old_color="#F9F0F0" fill="#F9F6F6"/><path d="m-.5 398.617188c-4.125 10.503906-6 20.625-6 30.375 0 26.996093 14.625 50.25 35.25 64.125 19.5 12.75 44.25 17.253906 67.121094 8.25 22.265625-7.421876 41.890625-33.210938 53.625-53.625 40.191406-68.554688 58.601562-179.0625 61.5-258.75.375-7.121094.375-13.871094.375-20.242188l-1.125.371094c-96 47.996094-171 129.75-210.746094 229.496094zm0 0" data-original="#000000" class="active-path" data-old_color="#F9F0F0" fill="#F9F6F6"/></g> </svg>
