<?xml version="1.0" encoding="iso-8859-1"?>
<!-- Generator: Adobe Illustrator 19.0.0, SVG Export Plug-In . SVG Version: 6.00 Build 0)  -->
<svg xmlns="http://www.w3.org/2000/svg" xmlns:xlink="http://www.w3.org/1999/xlink" version="1.1" id="Layer_1" x="0px" y="0px" viewBox="0 0 512 512" style="enable-background:new 0 0 512 512;" xml:space="preserve" width="512" height="512">
<path d="M505.705,334.688l-45.623-79.022l38.9-69.666h-46.188l-27.16,50h-67.318l-33.822-58.085L358.223,119h105.759L440.69,79  h-82.133L312.947,0H199.016l-45.611,79H63.26l-52.278,89h46.577l28.746-49h67.435l33.729,58.915L153.647,236H63.236L6.295,334.625  L63.187,434h113.53l45.418-79h67.743l33.834,58.354L289.853,472h-86.872l22.891,40h87.074l45.611-79h90.145L505.705,334.688z   M289.829,315h-67.694l-33.883-58.936L222.061,198h67.841l33.81,58.064L289.829,315z M222.11,40h67.743l33.895,58.708L289.804,158  h-67.646l-33.944-59.292L222.11,40z M153.574,394H86.378l-33.944-59.292L86.329,276h67.245l33.92,59L153.574,394z M358.147,393  l-33.653-58.042L358.39,276h67.244l33.858,58.646L425.658,393H358.147z"/>















</svg>
